<svg xmlns="http://www.w3.org/2000/svg" xmlns:xlink="http://www.w3.org/1999/xlink" width="1300" zoomAndPan="magnify" viewBox="0 0 974.88 149.999998" height="200" preserveAspectRatio="xMidYMid meet" version="1.0"><defs><g/><clipPath id="1682472d92"><path d="M 0 0.0078125 L 954 0.0078125 L 954 149.988281 L 0 149.988281 Z M 0 0.0078125 " clip-rule="nonzero"/></clipPath><clipPath id="495e5104ae"><rect x="0" width="954" y="0" height="150"/></clipPath></defs><g clip-path="url(#1682472d92)"><g transform="matrix(1, 0, 0, 1, 0, -0.000000000000008757)"><g clip-path="url(#495e5104ae)"><g fill="#364fab" fill-opacity="1"><g transform="translate(-5.025761, 138.904398)"><g><path d="M 44.578125 -59.140625 L 33.796875 -45.84375 L 33.796875 0 L 14.015625 0 L 14.015625 -132.140625 L 33.796875 -132.140625 L 33.796875 -73.171875 L 79.109375 -132.140625 L 103.1875 -132.140625 L 57.703125 -74.0625 L 109.671875 0 L 85.03125 0 Z M 44.578125 -59.140625 "/></g></g></g><g fill="#364fab" fill-opacity="1"><g transform="translate(89.361132, 138.904398)"><g><path d="M 51.234375 1.796875 C 42.722656 1.796875 35.171875 -0.117188 28.578125 -3.953125 C 21.992188 -7.785156 16.898438 -13 13.296875 -19.59375 C 9.703125 -26.1875 7.90625 -33.5 7.90625 -41.53125 C 7.90625 -49.4375 9.671875 -56.6875 13.203125 -63.28125 C 16.742188 -69.875 21.8125 -75.085938 28.40625 -78.921875 C 35 -82.753906 42.609375 -84.671875 51.234375 -84.671875 C 59.867188 -84.671875 67.453125 -82.753906 73.984375 -78.921875 C 80.515625 -75.085938 85.546875 -69.875 89.078125 -63.28125 C 92.617188 -56.6875 94.390625 -49.4375 94.390625 -41.53125 C 94.390625 -33.5 92.585938 -26.1875 88.984375 -19.59375 C 85.390625 -13 80.328125 -7.785156 73.796875 -3.953125 C 67.265625 -0.117188 59.742188 1.796875 51.234375 1.796875 Z M 51.78125 -14.015625 C 58.726562 -14.015625 64.207031 -16.59375 68.21875 -21.75 C 72.238281 -26.90625 74.25 -33.378906 74.25 -41.171875 C 74.25 -48.960938 72.09375 -55.523438 67.78125 -60.859375 C 63.46875 -66.191406 57.773438 -68.859375 50.703125 -68.859375 C 43.867188 -68.859375 38.382812 -66.21875 34.25 -60.9375 C 30.113281 -55.664062 28.046875 -49.078125 28.046875 -41.171875 C 28.046875 -33.492188 30.257812 -27.046875 34.6875 -21.828125 C 39.125 -16.617188 44.820312 -14.015625 51.78125 -14.015625 Z M 51.78125 -14.015625 "/></g></g></g><g fill="#364fab" fill-opacity="1"><g transform="translate(179.073616, 138.904398)"><g><path d="M 12.21875 -82.515625 L 31.640625 -82.515625 L 31.640625 -66.34375 C 33.554688 -71.851562 36.671875 -76.285156 40.984375 -79.640625 C 45.304688 -82.992188 50.222656 -84.671875 55.734375 -84.671875 C 59.566406 -84.671875 62.203125 -84.3125 63.640625 -83.59375 L 60.953125 -64 C 59.867188 -64.71875 57.53125 -65.078125 53.9375 -65.078125 C 48.300781 -65.078125 43.175781 -63.28125 38.5625 -59.6875 C 33.945312 -56.09375 31.640625 -50.335938 31.640625 -42.421875 L 31.640625 0 L 12.21875 0 Z M 12.21875 -82.515625 "/></g></g></g><g fill="#364fab" fill-opacity="1"><g transform="translate(231.03121, 138.904398)"><g><path d="M 49.265625 1.796875 C 41.828125 1.796875 34.960938 0.03125 28.671875 -3.5 C 22.378906 -7.039062 17.34375 -12.078125 13.5625 -18.609375 C 9.789062 -25.140625 7.90625 -32.78125 7.90625 -41.53125 C 7.90625 -50.15625 9.550781 -57.703125 12.84375 -64.171875 C 16.144531 -70.648438 20.851562 -75.6875 26.96875 -79.28125 C 33.082031 -82.875 40.273438 -84.671875 48.546875 -84.671875 C 53.335938 -84.671875 57.828125 -83.832031 62.015625 -82.15625 C 66.210938 -80.476562 69.75 -78.410156 72.625 -75.953125 C 75.507812 -73.492188 77.429688 -71.066406 78.390625 -68.671875 L 78.75 -82.515625 L 97.265625 -82.515625 L 97.265625 0 L 78.921875 0 L 78.5625 -14.5625 C 76.53125 -10.25 72.816406 -6.441406 67.421875 -3.140625 C 62.023438 0.148438 55.972656 1.796875 49.265625 1.796875 Z M 52.5 -14.375 C 59.332031 -14.375 65.082031 -16.738281 69.75 -21.46875 C 74.425781 -26.207031 76.765625 -32.414062 76.765625 -40.09375 L 76.765625 -41.34375 C 76.765625 -46.5 75.6875 -51.113281 73.53125 -55.1875 C 71.375 -59.269531 68.4375 -62.445312 64.71875 -64.71875 C 61 -67 56.925781 -68.140625 52.5 -68.140625 C 44.820312 -68.140625 38.882812 -65.648438 34.6875 -60.671875 C 30.5 -55.703125 28.40625 -49.257812 28.40625 -41.34375 C 28.40625 -33.3125 30.472656 -26.804688 34.609375 -21.828125 C 38.742188 -16.859375 44.707031 -14.375 52.5 -14.375 Z M 52.5 -14.375 "/></g></g></g><g fill="#364fab" fill-opacity="1"><g transform="translate(329.013813, 138.904398)"><g><path d="M 41.171875 1.796875 C 35.421875 1.796875 29.457031 1.046875 23.28125 -0.453125 C 17.101562 -1.953125 12.695312 -3.71875 10.0625 -5.75 L 16.546875 -21.03125 C 23.734375 -16 31.941406 -13.484375 41.171875 -13.484375 C 50.398438 -13.484375 55.015625 -16.179688 55.015625 -21.578125 C 55.015625 -23.972656 54.054688 -25.828125 52.140625 -27.140625 C 50.222656 -28.460938 46.804688 -30.023438 41.890625 -31.828125 L 35.0625 -34.34375 C 27.863281 -37.21875 22.164062 -40.660156 17.96875 -44.671875 C 13.78125 -48.691406 11.6875 -54 11.6875 -60.59375 C 11.6875 -68.132812 14.648438 -74.03125 20.578125 -78.28125 C 26.515625 -82.539062 34.457031 -84.671875 44.40625 -84.671875 C 49.320312 -84.671875 54.144531 -84.128906 58.875 -83.046875 C 63.613281 -81.972656 67.238281 -80.597656 69.75 -78.921875 L 62.75 -63.46875 C 61.1875 -65.019531 58.695312 -66.363281 55.28125 -67.5 C 51.863281 -68.644531 48.054688 -69.21875 43.859375 -69.21875 C 35.359375 -69.21875 31.109375 -66.640625 31.109375 -61.484375 C 31.109375 -58.609375 32.242188 -56.421875 34.515625 -54.921875 C 36.796875 -53.421875 40.515625 -51.773438 45.671875 -49.984375 C 46.148438 -49.859375 48.003906 -49.195312 51.234375 -48 C 58.910156 -45 64.601562 -41.582031 68.3125 -37.75 C 72.03125 -33.914062 73.890625 -29.003906 73.890625 -23.015625 C 73.890625 -14.859375 70.800781 -8.679688 64.625 -4.484375 C 58.457031 -0.296875 50.640625 1.796875 41.171875 1.796875 Z M 41.171875 1.796875 "/></g></g></g><g fill="#364fab" fill-opacity="1"><g transform="translate(397.69143, 138.904398)"><g/></g></g><g fill="#364fab" fill-opacity="1"><g transform="translate(429.153482, 138.904398)"><g><path d="M 75.6875 1.796875 C 62.625 1.796875 50.9375 -1.195312 40.625 -7.1875 C 30.320312 -13.1875 22.265625 -21.425781 16.453125 -31.90625 C 10.640625 -42.394531 7.734375 -54.171875 7.734375 -67.234375 C 7.734375 -79.941406 10.664062 -91.390625 16.53125 -101.578125 C 22.40625 -111.765625 30.554688 -119.734375 40.984375 -125.484375 C 51.410156 -131.234375 63.160156 -134.109375 76.234375 -134.109375 C 83.296875 -134.109375 89.671875 -133.476562 95.359375 -132.21875 C 101.054688 -130.96875 105.703125 -129.53125 109.296875 -127.90625 C 112.898438 -126.289062 115.359375 -124.882812 116.671875 -123.6875 L 108.765625 -106.796875 C 101.335938 -112.785156 90.375 -115.78125 75.875 -115.78125 C 66.28125 -115.78125 57.945312 -113.679688 50.875 -109.484375 C 43.800781 -105.285156 38.40625 -99.59375 34.6875 -92.40625 C 30.976562 -85.21875 29.125 -77.1875 29.125 -68.3125 C 29.125 -58.25 31.128906 -49.257812 35.140625 -41.34375 C 39.160156 -33.4375 44.734375 -27.296875 51.859375 -22.921875 C 58.992188 -18.546875 67.054688 -16.359375 76.046875 -16.359375 C 81.679688 -16.359375 87.070312 -17.046875 92.21875 -18.421875 C 97.375 -19.804688 101.753906 -21.992188 105.359375 -24.984375 L 105.359375 -50.515625 L 78.203125 -50.515625 L 78.203125 -69.03125 L 125.3125 -69.03125 L 125.3125 -17.265625 C 120.988281 -11.867188 114.484375 -7.34375 105.796875 -3.6875 C 97.109375 -0.03125 87.070312 1.796875 75.6875 1.796875 Z M 75.6875 1.796875 "/></g></g></g><g fill="#364fab" fill-opacity="1"><g transform="translate(550.328399, 138.904398)"><g><path d="M 49.265625 1.796875 C 41.828125 1.796875 34.960938 0.03125 28.671875 -3.5 C 22.378906 -7.039062 17.34375 -12.078125 13.5625 -18.609375 C 9.789062 -25.140625 7.90625 -32.78125 7.90625 -41.53125 C 7.90625 -50.15625 9.550781 -57.703125 12.84375 -64.171875 C 16.144531 -70.648438 20.851562 -75.6875 26.96875 -79.28125 C 33.082031 -82.875 40.273438 -84.671875 48.546875 -84.671875 C 53.335938 -84.671875 57.828125 -83.832031 62.015625 -82.15625 C 66.210938 -80.476562 69.75 -78.410156 72.625 -75.953125 C 75.507812 -73.492188 77.429688 -71.066406 78.390625 -68.671875 L 78.75 -82.515625 L 97.265625 -82.515625 L 97.265625 0 L 78.921875 0 L 78.5625 -14.5625 C 76.53125 -10.25 72.816406 -6.441406 67.421875 -3.140625 C 62.023438 0.148438 55.972656 1.796875 49.265625 1.796875 Z M 52.5 -14.375 C 59.332031 -14.375 65.082031 -16.738281 69.75 -21.46875 C 74.425781 -26.207031 76.765625 -32.414062 76.765625 -40.09375 L 76.765625 -41.34375 C 76.765625 -46.5 75.6875 -51.113281 73.53125 -55.1875 C 71.375 -59.269531 68.4375 -62.445312 64.71875 -64.71875 C 61 -67 56.925781 -68.140625 52.5 -68.140625 C 44.820312 -68.140625 38.882812 -65.648438 34.6875 -60.671875 C 30.5 -55.703125 28.40625 -49.257812 28.40625 -41.34375 C 28.40625 -33.3125 30.472656 -26.804688 34.609375 -21.828125 C 38.742188 -16.859375 44.707031 -14.375 52.5 -14.375 Z M 52.5 -14.375 "/></g></g></g><g fill="#364fab" fill-opacity="1"><g transform="translate(648.311028, 138.904398)"><g><path d="M 12.765625 -82.515625 L 32.1875 -82.515625 L 32.1875 -67.59375 C 34.820312 -73.226562 38.6875 -77.484375 43.78125 -80.359375 C 48.875 -83.234375 54.71875 -84.671875 61.3125 -84.671875 C 76.050781 -84.554688 85.097656 -79.460938 88.453125 -69.390625 C 91.085938 -74.066406 95.039062 -77.78125 100.3125 -80.53125 C 105.59375 -83.289062 111.164062 -84.671875 117.03125 -84.671875 C 125.664062 -84.671875 132.195312 -83.019531 136.625 -79.71875 C 141.0625 -76.425781 144.03125 -71.753906 145.53125 -65.703125 C 147.03125 -59.648438 147.78125 -51.53125 147.78125 -41.34375 L 147.78125 0 L 128.1875 0 L 128.1875 -41.53125 C 128.1875 -51.238281 127.195312 -58.1875 125.21875 -62.375 C 123.238281 -66.570312 119.429688 -68.671875 113.796875 -68.671875 C 106.242188 -68.671875 100.519531 -66.125 96.625 -61.03125 C 92.738281 -55.9375 90.796875 -49.253906 90.796875 -40.984375 L 90.796875 0 L 71.375 0 L 71.375 -44.40625 C 71.375 -50.757812 71.132812 -55.492188 70.65625 -58.609375 C 70.175781 -61.722656 68.859375 -64.175781 66.703125 -65.96875 C 64.546875 -67.769531 61.066406 -68.671875 56.265625 -68.671875 C 52.078125 -68.671875 48.15625 -67.410156 44.5 -64.890625 C 40.84375 -62.378906 37.90625 -58.992188 35.6875 -54.734375 C 33.46875 -50.484375 32.359375 -45.898438 32.359375 -40.984375 L 32.359375 0 L 12.765625 0 Z M 12.765625 -82.515625 "/></g></g></g><g fill="#364fab" fill-opacity="1"><g transform="translate(795.554762, 138.904398)"><g><path d="M 51.78125 1.796875 C 41.945312 1.796875 33.734375 -0.148438 27.140625 -4.046875 C 20.554688 -7.941406 15.703125 -13.15625 12.578125 -19.6875 C 9.460938 -26.21875 7.90625 -33.378906 7.90625 -41.171875 C 7.90625 -49.921875 9.734375 -57.585938 13.390625 -64.171875 C 17.046875 -70.765625 22.109375 -75.828125 28.578125 -79.359375 C 35.054688 -82.898438 42.367188 -84.671875 50.515625 -84.671875 C 63.222656 -84.671875 72.660156 -81.164062 78.828125 -74.15625 C 85.003906 -67.144531 88.09375 -57.285156 88.09375 -44.578125 C 88.09375 -41.347656 87.910156 -37.992188 87.546875 -34.515625 L 28.21875 -34.515625 C 29.539062 -27.203125 32.148438 -21.925781 36.046875 -18.6875 C 39.941406 -15.457031 45.363281 -13.84375 52.3125 -13.84375 C 58.070312 -13.84375 62.804688 -14.320312 66.515625 -15.28125 C 70.234375 -16.238281 73.648438 -17.554688 76.765625 -19.234375 L 82.703125 -5.390625 C 79.703125 -3.472656 75.625 -1.796875 70.46875 -0.359375 C 65.320312 1.078125 59.09375 1.796875 51.78125 1.796875 Z M 69.21875 -48 C 69.332031 -55.425781 67.710938 -60.664062 64.359375 -63.71875 C 61.003906 -66.78125 56.210938 -68.3125 49.984375 -68.3125 C 37.398438 -68.3125 30.144531 -61.539062 28.21875 -48 Z M 69.21875 -48 "/></g></g></g><g fill="#364fab" fill-opacity="1"><g transform="translate(878.615172, 138.904398)"><g><path d="M 41.171875 1.796875 C 35.421875 1.796875 29.457031 1.046875 23.28125 -0.453125 C 17.101562 -1.953125 12.695312 -3.71875 10.0625 -5.75 L 16.546875 -21.03125 C 23.734375 -16 31.941406 -13.484375 41.171875 -13.484375 C 50.398438 -13.484375 55.015625 -16.179688 55.015625 -21.578125 C 55.015625 -23.972656 54.054688 -25.828125 52.140625 -27.140625 C 50.222656 -28.460938 46.804688 -30.023438 41.890625 -31.828125 L 35.0625 -34.34375 C 27.863281 -37.21875 22.164062 -40.660156 17.96875 -44.671875 C 13.78125 -48.691406 11.6875 -54 11.6875 -60.59375 C 11.6875 -68.132812 14.648438 -74.03125 20.578125 -78.28125 C 26.515625 -82.539062 34.457031 -84.671875 44.40625 -84.671875 C 49.320312 -84.671875 54.144531 -84.128906 58.875 -83.046875 C 63.613281 -81.972656 67.238281 -80.597656 69.75 -78.921875 L 62.75 -63.46875 C 61.1875 -65.019531 58.695312 -66.363281 55.28125 -67.5 C 51.863281 -68.644531 48.054688 -69.21875 43.859375 -69.21875 C 35.359375 -69.21875 31.109375 -66.640625 31.109375 -61.484375 C 31.109375 -58.609375 32.242188 -56.421875 34.515625 -54.921875 C 36.796875 -53.421875 40.515625 -51.773438 45.671875 -49.984375 C 46.148438 -49.859375 48.003906 -49.195312 51.234375 -48 C 58.910156 -45 64.601562 -41.582031 68.3125 -37.75 C 72.03125 -33.914062 73.890625 -29.003906 73.890625 -23.015625 C 73.890625 -14.859375 70.800781 -8.679688 64.625 -4.484375 C 58.457031 -0.296875 50.640625 1.796875 41.171875 1.796875 Z M 41.171875 1.796875 "/></g></g></g></g></g></g></svg>