<?xml version="1.0" encoding="utf-8"?>
<!-- Generator: Adobe Illustrator 26.5.0, SVG Export Plug-In . SVG Version: 6.00 Build 0)  -->
<svg version="1.0"
	 id="svg5" xmlns:svg="http://www.w3.org/2000/svg" xmlns:sodipodi="http://sodipodi.sourceforge.net/DTD/sodipodi-0.dtd" xmlns:inkscape="http://www.inkscape.org/namespaces/inkscape"
	 xmlns="http://www.w3.org/2000/svg" xmlns:xlink="http://www.w3.org/1999/xlink" x="0px" y="0px" viewBox="0 0 714 501.08"
	 style="enable-background:new 0 0 714 501.08;" xml:space="preserve">
<sodipodi:namedview  bordercolor="#666666" borderopacity="1.0" id="namedview7" inkscape:current-layer="layer1" inkscape:cx="484.75989" inkscape:cy="296.63246" inkscape:document-units="mm" inkscape:pagecheckerboard="0" inkscape:pageopacity="0.0" inkscape:pageshadow="2" inkscape:window-height="1017" inkscape:window-maximized="1" inkscape:window-width="1920" inkscape:window-x="-8" inkscape:window-y="-8" inkscape:zoom="0.64052329" pagecolor="#ffffff" showgrid="false">
	</sodipodi:namedview>
<g id="layer1" transform="translate(23.218589,-69.698466)" inkscape:groupmode="layer" inkscape:label="Layer 1">
	<g id="g833" transform="matrix(0.26458333,0,0,0.26458333,-23.218589,69.698466)">
		<path id="path824" d="M488.83,1009.9l65.28,119.47H432.99l-55.11-102.1h-52.21v102.1H215.43V767.46h201.6
			c83.4,0,136.35,46.29,136.35,129.53C553.38,950.55,528.72,988.92,488.83,1009.9z M325.66,861.52v71.66h78.32
			c23.21,0,37.71-13.75,37.71-36.19c0-22.44-14.5-35.47-37.71-35.47H325.66z M904.38,1156.12l-329.96-89.03l88.48-329.35
			l164.98,44.52l164.98,44.51L904.38,1156.12z M842.01,913.63l-92.1-25.33l-24.66,91.93l92.1,25.34L842.01,913.63z M1370.69,1027.27
			c0,69.49-44.24,102.1-113.13,102.1h-216.11V767.46h208.86c68.89,0,113.13,35.47,113.13,97.72c0,39.09-14.5,65.15-42.06,83.25
			C1352.56,962.13,1370.69,989.64,1370.69,1027.27L1370.69,1027.27z M1148.78,854.32v53.56h71.76c19.58,0,31.18-8.69,31.18-27.51
			c0-17.37-11.6-26.06-31.18-26.06H1148.78z M1148.78,1042.51h80.5c18.85,0,29.77-10.13,29.77-27.51c0-18.81-10.88-27.5-29.77-27.5
			h-80.5V1042.51z M1425.08,767.46h110.21v254.75h158.09v107.16h-268.32L1425.08,767.46z M2098.79,948.42
			c0,37.22-11.06,73.61-31.78,104.56c-20.72,30.95-50.17,55.07-84.62,69.31c-34.45,14.24-72.36,17.97-108.94,10.71
			c-36.58-7.26-70.17-25.19-96.54-51.51c-26.37-26.32-44.33-59.85-51.6-96.36c-7.28-36.51-3.54-74.35,10.73-108.73
			c14.27-34.39,38.44-63.78,69.45-84.46c31.01-20.68,67.46-31.72,104.75-31.72c24.77-0.05,49.31,4.78,72.21,14.22
			c22.9,9.44,43.7,23.29,61.22,40.78c17.52,17.48,31.41,38.24,40.86,61.09c9.46,22.85,14.31,47.34,14.26,72.07V948.42z
			 M1988.56,948.42c0-44.88-35.54-80.35-78.32-80.35c-42.79,0-78.33,35.47-78.33,80.35c0,44.88,35.54,80.34,78.33,80.34
			c42.79,0,78.32-35.51,78.32-80.38V948.42z M2364.21,942.62l118.94,186.74h-131.3l-65.24-106.44l-67.44,106.44h-133.44
			l124.01-182.41l-113.85-179.5h131.26l60.19,97.72l58.02-97.72h130.54L2364.21,942.62z"/>
	</g>
</g>
</svg>
