<svg xmlns="http://www.w3.org/2000/svg" xmlns:xlink="http://www.w3.org/1999/xlink" width="1300" zoomAndPan="magnify" viewBox="0 0 974.88 149.999998" height="200" preserveAspectRatio="xMidYMid meet" version="1.0"><defs><g/><clipPath id="7ba6cad334"><path d="M 0 0.0078125 L 970 0.0078125 L 970 149.988281 L 0 149.988281 Z M 0 0.0078125 " clip-rule="nonzero"/></clipPath><clipPath id="beb4507386"><rect x="0" width="970" y="0" height="150"/></clipPath></defs><g clip-path="url(#7ba6cad334)"><g transform="matrix(1, 0, 0, 1, 0, -0.000000000000008757)"><g clip-path="url(#beb4507386)"><g fill="#364fab" fill-opacity="1"><g transform="translate(-8.086751, 129.623359)"><g><path d="M 13.578125 0 L 13.578125 -113.1875 L 39.296875 -113.1875 L 39.296875 -69.6875 L 48.984375 -69.6875 C 55.347656 -69.6875 60.007812 -70.707031 62.96875 -72.75 C 65.9375 -74.800781 68.390625 -78.46875 70.328125 -83.75 L 81 -113.1875 L 108.8125 -113.1875 L 93.125 -72.921875 C 91.726562 -69.253906 90.140625 -65.960938 88.359375 -63.046875 C 86.578125 -60.140625 84.554688 -57.609375 82.296875 -55.453125 L 112.859375 0 L 82.953125 0 L 58.6875 -45.921875 C 57.71875 -45.804688 56.773438 -45.75 55.859375 -45.75 C 54.941406 -45.75 53.945312 -45.75 52.875 -45.75 L 39.296875 -45.75 L 39.296875 0 Z M 13.578125 0 "/></g></g></g><g fill="#364fab" fill-opacity="1"><g transform="translate(89.238844, 129.623359)"><g><path d="M 54 2.265625 C 44.625 2.265625 36.351562 0.378906 29.1875 -3.390625 C 22.019531 -7.160156 16.414062 -12.414062 12.375 -19.15625 C 8.332031 -25.894531 6.3125 -33.6875 6.3125 -42.53125 C 6.3125 -51.363281 8.332031 -59.117188 12.375 -65.796875 C 16.414062 -72.484375 22.019531 -77.710938 29.1875 -81.484375 C 36.351562 -85.265625 44.625 -87.15625 54 -87.15625 C 63.382812 -87.15625 71.660156 -85.265625 78.828125 -81.484375 C 85.992188 -77.710938 91.570312 -72.484375 95.5625 -65.796875 C 99.550781 -59.117188 101.546875 -51.363281 101.546875 -42.53125 C 101.546875 -33.6875 99.550781 -25.894531 95.5625 -19.15625 C 91.570312 -12.414062 85.992188 -7.160156 78.828125 -3.390625 C 71.660156 0.378906 63.382812 2.265625 54 2.265625 Z M 30.5625 -42.53125 C 30.5625 -35.625 32.742188 -29.960938 37.109375 -25.546875 C 41.472656 -21.128906 47.101562 -18.921875 54 -18.921875 C 60.90625 -18.921875 66.507812 -21.128906 70.8125 -25.546875 C 75.125 -29.960938 77.28125 -35.625 77.28125 -42.53125 C 77.28125 -49.53125 75.125 -55.210938 70.8125 -59.578125 C 66.507812 -63.941406 60.90625 -66.125 54 -66.125 C 47.101562 -66.125 41.472656 -63.941406 37.109375 -59.578125 C 32.742188 -55.210938 30.5625 -49.53125 30.5625 -42.53125 Z M 30.5625 -42.53125 "/></g></g></g><g fill="#364fab" fill-opacity="1"><g transform="translate(185.756719, 129.623359)"><g><path d="M 12.28125 0 L 12.28125 -84.890625 L 30.5625 -84.890625 L 33.796875 -73.5625 C 36.597656 -77.550781 40.046875 -80.4375 44.140625 -82.21875 C 48.234375 -84 53.40625 -84.890625 59.65625 -84.890625 L 68.875 -84.890625 L 68.875 -62.578125 L 59.5 -62.578125 C 52.488281 -62.578125 46.960938 -60.6875 42.921875 -56.90625 C 38.878906 -53.132812 36.859375 -46.671875 36.859375 -37.515625 L 36.859375 0 Z M 12.28125 0 "/></g></g></g><g fill="#364fab" fill-opacity="1"><g transform="translate(242.50246, 129.623359)"><g><path d="M 40.578125 1.609375 C 30.554688 1.609375 22.632812 -0.734375 16.8125 -5.421875 C 10.988281 -10.109375 8.078125 -16.546875 8.078125 -24.734375 C 8.078125 -32.609375 10.691406 -38.890625 15.921875 -43.578125 C 21.148438 -48.265625 28.1875 -50.609375 37.03125 -50.609375 L 67.75 -50.609375 L 67.75 -54.484375 C 67.75 -58.691406 66.238281 -62.0625 63.21875 -64.59375 C 60.195312 -67.125 56.265625 -68.390625 51.421875 -68.390625 C 47.429688 -68.390625 44.035156 -67.472656 41.234375 -65.640625 C 38.429688 -63.804688 36.648438 -61.382812 35.890625 -58.375 L 12.28125 -58.375 C 13.789062 -67.644531 17.96875 -74.757812 24.8125 -79.71875 C 31.664062 -84.675781 40.476562 -87.15625 51.25 -87.15625 C 63.96875 -87.15625 73.910156 -83.945312 81.078125 -77.53125 C 88.253906 -71.113281 91.84375 -62.300781 91.84375 -51.09375 L 91.84375 0 L 73.5625 0 L 70.8125 -9.859375 C 63.375 -2.210938 53.296875 1.609375 40.578125 1.609375 Z M 32.34375 -25.703125 C 32.34375 -22.796875 33.609375 -20.453125 36.140625 -18.671875 C 38.671875 -16.890625 42.039062 -16 46.25 -16 C 52.382812 -16 57.472656 -17.773438 61.515625 -21.328125 C 65.554688 -24.890625 67.6875 -29.53125 67.90625 -35.25 L 44.625 -35.25 C 40.957031 -35.25 37.992188 -34.382812 35.734375 -32.65625 C 33.472656 -30.9375 32.34375 -28.617188 32.34375 -25.703125 Z M 32.34375 -25.703125 "/></g></g></g><g fill="#364fab" fill-opacity="1"><g transform="translate(333.685089, 129.623359)"><g><path d="M 44.953125 2.265625 C 37.191406 2.265625 30.425781 1.023438 24.65625 -1.453125 C 18.882812 -3.929688 14.410156 -7.378906 11.234375 -11.796875 C 8.054688 -16.222656 6.46875 -21.398438 6.46875 -27.328125 L 30.5625 -27.328125 C 30.664062 -23.878906 32.007812 -21.128906 34.59375 -19.078125 C 37.1875 -17.023438 40.742188 -16 45.265625 -16 C 49.148438 -16 52.171875 -16.726562 54.328125 -18.1875 C 56.484375 -19.644531 57.5625 -21.613281 57.5625 -24.09375 C 57.5625 -26.789062 56.101562 -29.023438 53.1875 -30.796875 C 50.28125 -32.578125 45.539062 -34.007812 38.96875 -35.09375 C 28.1875 -37.03125 20.257812 -40.15625 15.1875 -44.46875 C 10.125 -48.78125 7.59375 -54.4375 7.59375 -61.4375 C 7.59375 -69.738281 10.691406 -76.097656 16.890625 -80.515625 C 23.085938 -84.941406 31.898438 -87.15625 43.328125 -87.15625 C 54.648438 -87.15625 63.515625 -84.726562 69.921875 -79.875 C 76.335938 -75.019531 79.816406 -68.117188 80.359375 -59.171875 L 56.90625 -59.171875 C 56.695312 -62.410156 55.378906 -64.914062 52.953125 -66.6875 C 50.523438 -68.46875 47.265625 -69.359375 43.171875 -69.359375 C 39.503906 -69.359375 36.617188 -68.65625 34.515625 -67.25 C 32.421875 -65.851562 31.375 -63.914062 31.375 -61.4375 C 31.375 -58.851562 32.742188 -56.832031 35.484375 -55.375 C 38.234375 -53.914062 43.222656 -52.4375 50.453125 -50.9375 C 71.359375 -46.726562 81.8125 -37.726562 81.8125 -23.9375 C 81.8125 -15.84375 78.550781 -9.453125 72.03125 -4.765625 C 65.507812 -0.078125 56.484375 2.265625 44.953125 2.265625 Z M 44.953125 2.265625 "/></g></g></g><g fill="#364fab" fill-opacity="1"><g transform="translate(407.73011, 129.623359)"><g/></g></g><g fill="#364fab" fill-opacity="1"><g transform="translate(430.362895, 129.623359)"><g><path d="M 66.296875 2.265625 C 54.753906 2.265625 44.507812 -0.238281 35.5625 -5.25 C 26.625 -10.257812 19.617188 -17.1875 14.546875 -26.03125 C 9.484375 -34.875 6.953125 -45.0625 6.953125 -56.59375 C 6.953125 -68.125 9.457031 -78.304688 14.46875 -87.140625 C 19.476562 -95.984375 26.429688 -102.910156 35.328125 -107.921875 C 44.222656 -112.929688 54.382812 -115.4375 65.8125 -115.4375 C 74.96875 -115.4375 83.425781 -113.820312 91.1875 -110.59375 C 98.945312 -107.363281 105.546875 -102.8125 110.984375 -96.9375 C 116.429688 -91.0625 120.289062 -84.132812 122.5625 -76.15625 L 94.90625 -76.15625 C 92.21875 -81.113281 88.363281 -84.96875 83.34375 -87.71875 C 78.332031 -90.46875 72.648438 -91.84375 66.296875 -91.84375 C 59.710938 -91.84375 53.890625 -90.332031 48.828125 -87.3125 C 43.765625 -84.289062 39.800781 -80.140625 36.9375 -74.859375 C 34.082031 -69.578125 32.65625 -63.488281 32.65625 -56.59375 C 32.65625 -49.800781 34.054688 -43.765625 36.859375 -38.484375 C 39.660156 -33.203125 43.59375 -29.023438 48.65625 -25.953125 C 53.726562 -22.878906 59.710938 -21.34375 66.609375 -21.34375 C 74.910156 -21.34375 81.8125 -23.441406 87.3125 -27.640625 C 92.8125 -31.847656 96.367188 -37.398438 97.984375 -44.296875 L 61.28125 -44.296875 L 61.28125 -64.1875 L 125.140625 -64.1875 C 125.785156 -54.488281 124.84375 -45.597656 122.3125 -37.515625 C 119.78125 -29.429688 115.898438 -22.394531 110.671875 -16.40625 C 105.441406 -10.425781 99.082031 -5.816406 91.59375 -2.578125 C 84.101562 0.648438 75.671875 2.265625 66.296875 2.265625 Z M 66.296875 2.265625 "/></g></g></g><g fill="#364fab" fill-opacity="1"><g transform="translate(549.029886, 129.623359)"><g><path d="M 40.578125 1.609375 C 30.554688 1.609375 22.632812 -0.734375 16.8125 -5.421875 C 10.988281 -10.109375 8.078125 -16.546875 8.078125 -24.734375 C 8.078125 -32.609375 10.691406 -38.890625 15.921875 -43.578125 C 21.148438 -48.265625 28.1875 -50.609375 37.03125 -50.609375 L 67.75 -50.609375 L 67.75 -54.484375 C 67.75 -58.691406 66.238281 -62.0625 63.21875 -64.59375 C 60.195312 -67.125 56.265625 -68.390625 51.421875 -68.390625 C 47.429688 -68.390625 44.035156 -67.472656 41.234375 -65.640625 C 38.429688 -63.804688 36.648438 -61.382812 35.890625 -58.375 L 12.28125 -58.375 C 13.789062 -67.644531 17.96875 -74.757812 24.8125 -79.71875 C 31.664062 -84.675781 40.476562 -87.15625 51.25 -87.15625 C 63.96875 -87.15625 73.910156 -83.945312 81.078125 -77.53125 C 88.253906 -71.113281 91.84375 -62.300781 91.84375 -51.09375 L 91.84375 0 L 73.5625 0 L 70.8125 -9.859375 C 63.375 -2.210938 53.296875 1.609375 40.578125 1.609375 Z M 32.34375 -25.703125 C 32.34375 -22.796875 33.609375 -20.453125 36.140625 -18.671875 C 38.671875 -16.890625 42.039062 -16 46.25 -16 C 52.382812 -16 57.472656 -17.773438 61.515625 -21.328125 C 65.554688 -24.890625 67.6875 -29.53125 67.90625 -35.25 L 44.625 -35.25 C 40.957031 -35.25 37.992188 -34.382812 35.734375 -32.65625 C 33.472656 -30.9375 32.34375 -28.617188 32.34375 -25.703125 Z M 32.34375 -25.703125 "/></g></g></g><g fill="#364fab" fill-opacity="1"><g transform="translate(640.212516, 129.623359)"><g><path d="M 12.28125 0 L 12.28125 -84.890625 L 30.5625 -84.890625 L 32.984375 -76.15625 C 36.109375 -79.820312 39.90625 -82.570312 44.375 -84.40625 C 48.851562 -86.238281 53.785156 -87.15625 59.171875 -87.15625 C 71.679688 -87.15625 81.007812 -82.519531 87.15625 -73.25 C 90.601562 -77.664062 94.9375 -81.085938 100.15625 -83.515625 C 105.382812 -85.941406 111.234375 -87.15625 117.703125 -87.15625 C 128.585938 -87.15625 137.238281 -83.785156 143.65625 -77.046875 C 150.070312 -70.304688 153.28125 -61.113281 153.28125 -49.46875 L 153.28125 0 L 128.703125 0 L 128.703125 -46.5625 C 128.703125 -52.601562 127.21875 -57.375 124.25 -60.875 C 121.289062 -64.375 117.28125 -66.125 112.21875 -66.125 C 106.925781 -66.125 102.71875 -64.289062 99.59375 -60.625 C 96.46875 -56.96875 94.90625 -52.066406 94.90625 -45.921875 L 94.90625 0 L 70.65625 0 L 70.65625 -46.5625 C 70.65625 -52.601562 69.171875 -57.375 66.203125 -60.875 C 63.242188 -64.375 59.234375 -66.125 54.171875 -66.125 C 48.890625 -66.125 44.679688 -64.289062 41.546875 -60.625 C 38.421875 -56.96875 36.859375 -52.066406 36.859375 -45.921875 L 36.859375 0 Z M 12.28125 0 "/></g></g></g><g fill="#364fab" fill-opacity="1"><g transform="translate(792.831132, 129.623359)"><g><path d="M 52.390625 2.265625 C 43.335938 2.265625 35.332031 0.378906 28.375 -3.390625 C 21.425781 -7.160156 16.007812 -12.414062 12.125 -19.15625 C 8.25 -25.894531 6.3125 -33.6875 6.3125 -42.53125 C 6.3125 -51.363281 8.273438 -59.117188 12.203125 -65.796875 C 16.140625 -72.484375 21.582031 -77.710938 28.53125 -81.484375 C 35.488281 -85.265625 43.546875 -87.15625 52.703125 -87.15625 C 62.410156 -87.15625 70.789062 -85 77.84375 -80.6875 C 84.90625 -76.375 90.296875 -70.335938 94.015625 -62.578125 C 97.734375 -54.816406 99.328125 -45.757812 98.796875 -35.40625 L 30.71875 -35.40625 C 31.90625 -29.582031 34.492188 -25.132812 38.484375 -22.0625 C 42.472656 -19 47.269531 -17.46875 52.875 -17.46875 C 56.96875 -17.46875 60.710938 -18.25 64.109375 -19.8125 C 67.503906 -21.375 70.226562 -23.554688 72.28125 -26.359375 L 97.171875 -26.359375 C 93.503906 -17.410156 87.738281 -10.398438 79.875 -5.328125 C 72.007812 -0.265625 62.847656 2.265625 52.390625 2.265625 Z M 30.875 -50.9375 L 75.015625 -50.9375 C 73.617188 -56.101562 71.003906 -60.164062 67.171875 -63.125 C 63.347656 -66.09375 58.582031 -67.578125 52.875 -67.578125 C 47.476562 -67.578125 42.8125 -66.09375 38.875 -63.125 C 34.945312 -60.164062 32.28125 -56.101562 30.875 -50.9375 Z M 30.875 -50.9375 "/></g></g></g><g fill="#364fab" fill-opacity="1"><g transform="translate(886.438913, 129.623359)"><g><path d="M 44.953125 2.265625 C 37.191406 2.265625 30.425781 1.023438 24.65625 -1.453125 C 18.882812 -3.929688 14.410156 -7.378906 11.234375 -11.796875 C 8.054688 -16.222656 6.46875 -21.398438 6.46875 -27.328125 L 30.5625 -27.328125 C 30.664062 -23.878906 32.007812 -21.128906 34.59375 -19.078125 C 37.1875 -17.023438 40.742188 -16 45.265625 -16 C 49.148438 -16 52.171875 -16.726562 54.328125 -18.1875 C 56.484375 -19.644531 57.5625 -21.613281 57.5625 -24.09375 C 57.5625 -26.789062 56.101562 -29.023438 53.1875 -30.796875 C 50.28125 -32.578125 45.539062 -34.007812 38.96875 -35.09375 C 28.1875 -37.03125 20.257812 -40.15625 15.1875 -44.46875 C 10.125 -48.78125 7.59375 -54.4375 7.59375 -61.4375 C 7.59375 -69.738281 10.691406 -76.097656 16.890625 -80.515625 C 23.085938 -84.941406 31.898438 -87.15625 43.328125 -87.15625 C 54.648438 -87.15625 63.515625 -84.726562 69.921875 -79.875 C 76.335938 -75.019531 79.816406 -68.117188 80.359375 -59.171875 L 56.90625 -59.171875 C 56.695312 -62.410156 55.378906 -64.914062 52.953125 -66.6875 C 50.523438 -68.46875 47.265625 -69.359375 43.171875 -69.359375 C 39.503906 -69.359375 36.617188 -68.65625 34.515625 -67.25 C 32.421875 -65.851562 31.375 -63.914062 31.375 -61.4375 C 31.375 -58.851562 32.742188 -56.832031 35.484375 -55.375 C 38.234375 -53.914062 43.222656 -52.4375 50.453125 -50.9375 C 71.359375 -46.726562 81.8125 -37.726562 81.8125 -23.9375 C 81.8125 -15.84375 78.550781 -9.453125 72.03125 -4.765625 C 65.507812 -0.078125 56.484375 2.265625 44.953125 2.265625 Z M 44.953125 2.265625 "/></g></g></g></g></g></g></svg>